<svg id="Capa_1" enable-background="new 0 0 512 512" height="512" viewBox="0 0 512 512" width="512" xmlns="http://www.w3.org/2000/svg"><g><g><path d="m343.351 315.945c-8.248-6-33.252-43.945-87.964-43.945h-24.272l136.272-272 107.227 53.613z" fill="#f25872"/></g><g><path d="m167.423 315.945-130.036-262.332 107.226-53.613 135.046 272h-24.272c-53.916 0-79.968 38.128-87.964 43.945z" fill="#ff798f"/></g><circle cx="255.387" cy="377" fill="#ffdf40" r="135"/><path d="m390.387 377c0-74.559-60.441-135-135-135v270c74.558 0 135-60.441 135-135z" fill="#ffbe40"/><g id="Success_1_"><g><path d="m310.377 452.688-54.99-28.55-54.99 28.55 10.166-61.128-44.15-43.477 61.274-9.214 27.7-55.415 27.7 55.415 61.274 9.214-44.15 43.477z" fill="#ffbe40"/></g></g><path d="m310.377 452.688-10.166-61.127 44.15-43.477-61.274-9.214-27.7-55.415v140.684z" fill="#ff9f40"/></g></svg>